<svg width="49" height="44" viewBox="0 0 49 44" fill="none" xmlns="http://www.w3.org/2000/svg">
<g clip-path="url(#clip0_32_225)" filter="url(#filter0_dd_32_225)">
<path d="M7.50671 12.5505H13.6862C14.0098 12.5505 14.2722 12.2882 14.2722 11.9645C14.2722 11.6409 14.0098 11.3786 13.6862 11.3786H7.50671C7.18312 11.3786 6.92078 11.6409 6.92078 11.9645C6.92078 12.2882 7.18304 12.5505 7.50671 12.5505Z" fill="#09A66D"/>
<path d="M13.4745 15.3713H11.0334C10.7099 15.3713 10.4475 15.6336 10.4475 15.9573C10.4475 16.2809 10.7099 16.5432 11.0334 16.5432H13.4745C13.7981 16.5432 14.0605 16.2809 14.0605 15.9573C14.0605 15.6336 13.7981 15.3713 13.4745 15.3713Z" fill="#09A66D"/>
<path d="M5.05566 19.4346H11.0332C11.3568 19.4346 11.6191 19.1723 11.6191 18.8486C11.6191 18.525 11.3568 18.2627 11.0332 18.2627H5.05566C4.73207 18.2627 4.46973 18.525 4.46973 18.8486C4.46973 19.1723 4.73207 19.4346 5.05566 19.4346Z" fill="#09A66D"/>
<path d="M14.2722 29.8223C14.2722 29.4986 14.0098 29.2363 13.6862 29.2363H7.50671C7.18312 29.2363 6.92078 29.4986 6.92078 29.8223C6.92078 30.1459 7.18312 30.4082 7.50671 30.4082H13.6862C14.0098 30.4082 14.2722 30.1459 14.2722 29.8223Z" fill="#09A66D"/>
<path d="M13.4745 25.2437H11.0334C10.7099 25.2437 10.4475 25.5059 10.4475 25.8296C10.4475 26.1533 10.7099 26.4155 11.0334 26.4155H13.4745C13.7981 26.4155 14.0605 26.1533 14.0605 25.8296C14.0605 25.5059 13.7981 25.2437 13.4745 25.2437Z" fill="#09A66D"/>
<path d="M11.6191 22.9382C11.6191 22.6145 11.3568 22.3522 11.0332 22.3522H5.05566C4.73207 22.3522 4.46973 22.6145 4.46973 22.9382C4.46973 23.2618 4.73207 23.5241 5.05566 23.5241H11.0332C11.3568 23.5241 11.6191 23.2618 11.6191 22.9382Z" fill="#09A66D"/>
<path d="M29.4329 13.8489C29.7565 13.8489 30.0188 13.5866 30.0188 13.263V12.3686C30.0188 12.0449 29.7565 11.7827 29.4329 11.7827C29.1092 11.7827 28.8469 12.0449 28.8469 12.3686V13.263C28.8469 13.5866 29.1092 13.8489 29.4329 13.8489Z" fill="#09A66D"/>
<path d="M35.8755 14.4511C35.6466 14.2224 35.2757 14.2224 35.0468 14.4511L34.4144 15.0835C34.1856 15.3124 34.1856 15.6834 34.4144 15.9122C34.6434 16.141 35.0143 16.1409 35.2431 15.9122L35.8755 15.2798C36.1043 15.0509 36.1043 14.68 35.8755 14.4511Z" fill="#09A66D"/>
<path d="M37.0627 20.3075C36.7391 20.3075 36.4768 20.5698 36.4768 20.8934C36.4768 21.2171 36.7391 21.4794 37.0627 21.4794H37.957C38.2807 21.4794 38.543 21.2171 38.543 20.8934C38.543 20.5698 38.2807 20.3075 37.957 20.3075H37.0627Z" fill="#09A66D"/>
<path d="M35.2431 25.8746C35.0142 25.6458 34.6432 25.6458 34.4144 25.8746C34.1856 26.1035 34.1856 26.4744 34.4144 26.7032L35.0468 27.3357C35.2758 27.5645 35.6467 27.5644 35.8755 27.3357C36.1043 27.1068 36.1043 26.7358 35.8755 26.507L35.2431 25.8746Z" fill="#09A66D"/>
<path d="M28.8469 28.5239V29.4182C28.8469 29.7418 29.1092 30.0041 29.4329 30.0041C29.7565 30.0041 30.0188 29.7418 30.0188 29.4182V28.5239C30.0188 28.2002 29.7565 27.9379 29.4329 27.9379C29.1092 27.9379 28.8469 28.2003 28.8469 28.5239Z" fill="#09A66D"/>
<path d="M23.6231 25.8746L22.9907 26.507C22.7619 26.7359 22.7619 27.1068 22.9907 27.3357C23.2196 27.5645 23.5906 27.5644 23.8193 27.3357L24.4517 26.7032C24.6805 26.4743 24.6805 26.1034 24.4517 25.8746C24.223 25.6458 23.852 25.6458 23.6231 25.8746Z" fill="#09A66D"/>
<path d="M20.9078 20.3075C20.5842 20.3075 20.3219 20.5698 20.3219 20.8934C20.3219 21.2171 20.5842 21.4794 20.9078 21.4794H21.8022C22.1258 21.4794 22.3881 21.2171 22.3881 20.8934C22.3881 20.5698 22.1258 20.3075 21.8022 20.3075H20.9078Z" fill="#09A66D"/>
<path d="M24.4518 15.0835L23.8194 14.4511C23.5906 14.2224 23.2196 14.2224 22.9908 14.4511C22.762 14.68 22.762 15.0509 22.9908 15.2798L23.6233 15.9122C23.8522 16.141 24.2231 16.1409 24.4518 15.9122C24.6807 15.6834 24.6807 15.3124 24.4518 15.0835Z" fill="#09A66D"/>
<path d="M32.5836 20.8935C32.5836 20.5698 32.3214 20.3075 31.9977 20.3075H30.0188V15.9572C30.0188 15.6335 29.7565 15.3713 29.4329 15.3713C29.1092 15.3713 28.8469 15.6335 28.8469 15.9572V20.8935C28.8469 21.2171 29.1092 21.4794 29.4329 21.4794H31.9977C32.3213 21.4794 32.5836 21.2171 32.5836 20.8935Z" fill="#09A66D"/>
<path d="M40.5432 20.7967C40.8662 20.7771 41.1122 20.4994 41.0926 20.1764C40.7198 14.0277 35.5983 9.21124 29.4328 9.21124C22.9912 9.21124 17.7506 14.4519 17.7506 20.8935C17.7506 27.3351 22.9912 32.5757 29.4328 32.5757C35.2038 32.5757 40.1281 28.3474 40.9848 22.6416C41.0328 22.3216 40.8123 22.0232 40.4923 21.9751C40.173 21.9273 39.8739 22.1475 39.8258 22.4676C39.0563 27.5937 34.6301 31.4039 29.4328 31.4039C23.6374 31.4039 18.9225 26.689 18.9225 20.8936C18.9225 15.0982 23.6374 10.3832 29.4328 10.3832C34.9798 10.3832 39.5875 14.7161 39.9228 20.2475C39.9423 20.5703 40.2198 20.8155 40.5432 20.7967V20.7967Z" fill="#09A66D"/>
<path d="M29.4332 5.85663C27.3722 5.85663 25.3529 6.28421 23.4943 7.08382H13.1561C12.8325 7.08382 12.5702 7.34608 12.5702 7.66975C12.5702 7.99343 12.8325 8.25569 13.1561 8.25569H21.29C20.1902 8.9635 19.1778 9.81725 18.2851 10.8029C18.0679 11.0426 18.0862 11.4132 18.326 11.6305C18.566 11.8477 18.9364 11.8294 19.1537 11.5895C21.7789 8.69093 25.5257 7.0285 29.4332 7.0285C37.0784 7.0285 43.2982 13.2483 43.2982 20.8934C43.2982 28.5385 37.0785 34.7584 29.4332 34.7584C21.7881 34.7584 15.5683 28.5386 15.5683 20.8934C15.5683 18.2162 16.3331 15.6178 17.7798 13.3789C17.9554 13.1071 17.8775 12.7444 17.6057 12.5688C17.3339 12.3933 16.9712 12.4711 16.7955 12.743C15.226 15.1717 14.3964 17.9901 14.3964 20.8934C14.3964 26.1876 17.1469 30.8511 21.2937 33.5312H13.1562C12.8326 33.5312 12.5703 33.7934 12.5703 34.1171C12.5703 34.4408 12.8326 34.703 13.1562 34.703H23.4863C25.3113 35.492 27.322 35.9302 29.4333 35.9302C37.7246 35.9302 44.4701 29.1848 44.4701 20.8934C44.4701 12.6021 37.7246 5.85663 29.4332 5.85663V5.85663Z" fill="#09A66D"/>
</g>
<defs>
<filter id="filter0_dd_32_225" x="0.469727" y="0.893433" width="48" height="48" filterUnits="userSpaceOnUse" color-interpolation-filters="sRGB">
<feFlood flood-opacity="0" result="BackgroundImageFix"/>
<feColorMatrix in="SourceAlpha" type="matrix" values="0 0 0 0 0 0 0 0 0 0 0 0 0 0 0 0 0 0 127 0" result="hardAlpha"/>
<feOffset dy="4"/>
<feGaussianBlur stdDeviation="2"/>
<feComposite in2="hardAlpha" operator="out"/>
<feColorMatrix type="matrix" values="0 0 0 0 0 0 0 0 0 0 0 0 0 0 0 0 0 0 0.25 0"/>
<feBlend mode="normal" in2="BackgroundImageFix" result="effect1_dropShadow_32_225"/>
<feColorMatrix in="SourceAlpha" type="matrix" values="0 0 0 0 0 0 0 0 0 0 0 0 0 0 0 0 0 0 127 0" result="hardAlpha"/>
<feOffset dy="4"/>
<feGaussianBlur stdDeviation="2"/>
<feComposite in2="hardAlpha" operator="out"/>
<feColorMatrix type="matrix" values="0 0 0 0 0 0 0 0 0 0 0 0 0 0 0 0 0 0 0.25 0"/>
<feBlend mode="normal" in2="effect1_dropShadow_32_225" result="effect2_dropShadow_32_225"/>
<feBlend mode="normal" in="SourceGraphic" in2="effect2_dropShadow_32_225" result="shape"/>
</filter>
<clipPath id="clip0_32_225">
<rect width="40" height="40" fill="white" transform="translate(4.46973 0.893433)"/>
</clipPath>
</defs>
</svg>
